<?xml version="1.0" standalone="no"?>
<!DOCTYPE svg PUBLIC "-//W3C//DTD SVG 20010904//EN"
 "http://www.w3.org/TR/2001/REC-SVG-20010904/DTD/svg10.dtd">
<svg version="1.0" xmlns="http://www.w3.org/2000/svg"
 width="842.000000pt" height="842.000000pt" viewBox="0 0 842.000000 842.000000"
 preserveAspectRatio="xMidYMid meet">
<metadata>
Created by potrace 1.14, written by Peter Selinger 2001-2017
</metadata>
<g transform="translate(0.000000,842.000000) scale(0.100000,-0.100000)"
fill="#000000" stroke="none">
<path d="M3875 8408 c-229 -19 -501 -65 -725 -122 -582 -151 -1132 -431 -1606
-817 -536 -438 -966 -1018 -1231 -1664 -121 -293 -206 -597 -257 -916 -43
-265 -53 -389 -53 -664 -1 -317 21 -552 77 -836 235 -1190 980 -2225 2039
-2833 328 -189 698 -338 1072 -432 151 -38 438 -89 564 -99 44 -4 89 -9 100
-12 39 -9 571 -11 665 -3 156 14 212 20 280 31 36 6 83 13 105 16 79 10 283
55 420 93 988 270 1846 896 2408 1756 273 418 485 915 582 1364 29 131 38 180
54 288 38 245 48 389 48 652 0 299 -17 495 -68 775 -124 677 -427 1331 -868
1875 -115 142 -142 172 -311 340 -642 642 -1466 1050 -2380 1180 -248 36 -669
48 -915 28z"/>
</g>
</svg>
